<?xml version="1.0" standalone="no"?><!DOCTYPE svg PUBLIC "-//W3C//DTD SVG 1.1//EN" "http://www.w3.org/Graphics/SVG/1.1/DTD/svg11.dtd"><svg t="1564319642109" class="icon" viewBox="0 0 1024 1024" version="1.1" xmlns="http://www.w3.org/2000/svg" p-id="2432" xmlns:xlink="http://www.w3.org/1999/xlink" width="200" height="200"><defs><style type="text/css"></style></defs><path d="M886.9497921875001 464.019940625c-2.76035625-2.3102671875-8.21554875-5.6859346875-16.3043325-8.523204375-7.9691390625-2.811631875-32.557388437499995-10.651156875-32.557388437499995-10.651156875s-10.364866875-64.988011875-10.9588134375-69.0701484375c-0.612463125-4.0807125-4.4225521875-17.2415428125-5.1859940625-20.0659940625-0.7577446875-2.84724-5.020771874999999-25.924273125-6.238575937499999-33.5501484375-1.2106828125-7.647240000000001-8.8180415625-48.659465625-10.3420771875-57.8905640625-1.5340059375000001-9.22397625-13.70350125-78.3012459375-15.532344375000001-89.30706187499999-1.8274181250000001-11.001542812499999-9.8891390625-61.7789915625-9.8891390625-61.7789915625s21.621364687499998-19.5461128125 25.5582196875-23.099821875c3.9667659375-3.55940625 7.3125225-6.204391875 9.9062315625-7.803916875 2.592285-1.5981009375000002 24.6452221875-15.9867065625 29.665994062499998-19.359524999999998 5.0392874999999995-3.3813646875 13.257685312500001-8.69554875 13.86302625-9.2325225 0.612463125-0.5412459374999999 0.612463125-1.7761425 1.9812459374999998-3.0238575 1.3588134374999998-1.219228125 4.250207812499999-4.60059375 4.250207812499999-4.60059375l-1.6579228125-4.4453409375c0 0-37.757625937499995-5.871097499999999-44.605815937500005-6.747061875C812.0555487500001 33.969851562500025 799.2693171875001 32.0142434375 799.2693171875001 32.0142434375l-125.8782196875 85.76902031249999L371.6989915625 323.5708015625 276.1148965625 388.923441875c0 0 0.77626125 3.0039168750000003 1.5425521875 3.180534375 0.739228125 0.1780415625 4.5421959375-0.356083125 5.466587812499999 1.06397625 1.0696734374999999-0.16379812500000002 2.28035625-0.7050440625000001 3.0509203125-0.884510625 0.7520475-0.1780415625 2.892819375 0 2.892819375 0s-4.5692578125 3.36712125-4.8740653125 3.723204375c-0.3062315625 0.34326375 0.1338871875 2.140771875-0.612463125 3.36712125-0.764866875 1.2562612499999999-1.8217209374999999 2.3202375-1.6750143750000002 3.2175665625 0.1652221875 0.8702671875 0.7591687500000001 3.3742434375 1.5226115625 3.539465625 0.764866875 0.1908609375 13.692106875-3.7331746875 13.692106875-3.7331746875s0.6181603125 0.3731746875 0.1652221875 1.7775665625000001c-0.30480749999999995 0.891631875-0.47145375 2.667774375-0.47145375 2.667774375s-118.4189915625 34.434659062499996-119.31204749999999 34.983026249999995c-0.47572687499999994 2.8329975-0.30480749999999995 33.02457 0 34.2494953125 0.29483718750000004 1.2619584375000001 2.875726875 8.531750624999999 3.1933528124999997 13.511216249999999 0.5996437499999999 7.269792187499999 0.4458159375 29.6489025-2.1464690625 39.7787540625-2.5751925 10.115608125-6.23145375 22.364866875-17.043560625 28.5621365625-10.8007125 6.235726875-18.8781009375 7.648665-22.8220771875 13.155133125-3.96819 5.500771875-3.5095546875 13.148011875000002-3.3571509374999997 20.41638 0.15240374999999998 7.271216249999999 0.9229678125 28.7501484375 1.2291984375 29.298516562499998 0.29483718750000004 0.5213053125 4.85697375 0.5213053125 4.85697375 1.2291984375 0 0.7335309375000001 0 14.4014240625 1.6821365625 17.047833750000002 1.6764393750000002 2.667774375 2.2860534375 3.3813646875 9.4233825 4.6290796875 7.1672400000000005 1.243441875 54.02492625 12.1709203125 63.17910937500001 14.023976249999999 8.825162812499999 1.756201875 28.302908437499998 6.9137090625 28.302908437499998 6.9137090625s8.0973290625 91.1059940625 8.5374478125 95.53709156250001c0.4586353125 4.6062909375 3.8100890625 39.411275625 3.9567956250000003 43.8338278125 0.15240374999999998 4.451038125-0.7520475 8.5388728125-1.823145 10.3306828125-1.0753706250000001 1.7618990625-0.9115725 2.8315725-0.77626125 4.428249375 0.16379812500000002 1.5824334375 2.452700625 27.508130625 2.90421375 28.2145996875 0.4586353125 0.7378040625 21.7709203125 6.0505640625 22.370564062499998 6.2300296875 0.612463125 0.1780415625 14.9284275-10.4745403125 15.667655625-11.3704453125 0.7705640625-0.8802375 1.8402375-30.004985625000003 1.8402375-31.068961875 0-1.0710975-2.7446887500000003-4.6062909375-2.8856971875-6.403798125-0.1652221875-1.7576259374999998 0.5982196875-20.036083125 1.0454596875-27.6818990625 0.47145375-7.631572500000001 5.344095-99.4426115625 5.344095-99.4426115625s72.5782790625 15.385637812499999 78.9863503125 16.700296875c7.7668846875 1.5981009375000002 89.79988125 20.40783375 89.79988125 20.40783375s2.592285 101.220178125 2.7589321875 106.5585759375c0.1338871875 5.321305312500001 1.5097921875 60.713590312499996 1.5097921875 60.713590312499996s-2.4213646875-0.8973290625-3.1919287499999998-0.7093171875c-0.7705640625 0.155251875-14.475489375 12.061245937499999-14.781720937500001 12.602492812500001-0.291988125 0.5455190625-0.1338871875 1.243441875-0.291988125 1.5981009375000002-0.14813062500000002 0.3575071875-1.6707421875 1.427180625-1.823145 1.78468875-0.15240374999999998 0.3418396875-0.15240374999999998 22.5429084375 0 23.0855784375 0.15240374999999998 0.5141840625 2.1151331250000003 0.340415625 2.1151331250000003 0.699346875 0 0.3546590625-0.1338871875 1.9456378124999998-0.1338871875 1.9456378124999998s-3.3628490625 0.891631875-6.0975665625 0.5426709375c-2.7332934375-0.3575071875-7.60735875 2.468368125-7.912166249999999 4.979465625-0.300534375 2.468368125 0.30480749999999995 4.4296734375 5.6261128125 5.3099109375 5.3184571875 0.8973290625 12.9571509375-0.8788134375000001 15.9909796875-2.1265284375 3.0267065625-1.243441875 5.618991562500001-3.3827896875000003 5.618991562500001-3.3827896875000003l15.080831250000001 4.8099703125c0 0-6.0975665625 3.5294953125-7.614480937500001 4.620534375-1.5211865624999998 1.06397625-2.4341840625 6.2015428125 1.364510625 7.6258753125 3.804391875 1.4172103125 8.23121625 2.31169125 11.876083125 0.7064690625 3.65626125-1.596676875 5.1731746875-6.3981009375 5.9366175-7.6258753125 0.7577446875-1.2548371875 1.6764393750000002-1.9541840625 1.6764393750000002-1.9541840625l17.667418125 4.9780415625c0 0-2.036795625 3.7388728125-2.2860534375 6.2072400000000005-0.307655625 2.8315725-0.7662909375 7.803916875 6.8424928125 8.688427500000001 7.603085625 0.891631875 10.195370624999999-1.7761425 11.11264125-3.187655625 0.90445125-1.4143621875-2.1293765625-5.1418396875-2.8970915625-6.3938278125000005-0.747774375-1.23916875 0.1509796875-2.1293765625 0.1509796875-2.1293765625s16.9025521875 4.60059375 17.821245937500002 4.4410678125c0.90445125-0.1851628125 13.3915725-12.603916875000001 13.5382790625-13.316083125 0.156676875-0.707893125 0-3.3756675 0.156676875-3.7331746875 0.1495546875-0.3546590625 1.3602375-1.0682493750000002 1.3602375-1.7690203125 0-0.7135903125 0.7577446875-21.6655190625 0.611038125-22.548605625-0.1467065625-0.8902078125-0.9186946874999999-1.076795625-1.5140653124999999-1.2477150000000001-0.6138871874999999-0.1865878125 0-1.5981009375000002-0.3062315625-1.955608125-0.307655625-0.3575071875-9.903382500000001-3.3827896875000003-9.903382500000001-3.3827896875000003s-3.0381009375000003-2.2903265624999998-4.24735875-2.6663503125c-1.212106875-0.3546590625-1.9826709375-0.8773884375-1.9826709375-0.8773884375l51.60783375-155.715133125 161.9366175 34.4489025c0 0 1.9812459374999998 156.428724375 1.6807124999999998 158.74041562500003-0.3218990625 2.3131153125-0.16379812500000002 6.044866875-0.61673625 7.0974478125000005-0.4543621875 1.0696734374999999-3.3457565625 6.925103437500001-3.3457565625 7.2854596874999995 0 0.340415625 0.9115725 33.191216250000004 1.0696734374999999 34.440356249999994 0.7577446875 0.7050440625000001 0.9115725 0.8859346874999999 1.8202968750000001 1.06397625 0.907299375 0.1751925 27.2474775 7.645815937500001 28.1505046875 7.28830875 0.9186946874999999-0.3774478125 9.595726875-14.76035625 10.0543621875-15.4582790625 0.45151312499999996-0.7135903125 4.72735875-34.450326562499995 4.4211271875-35.1624928125-0.307655625-0.7064690625-2.2931746875-6.20011875-2.4470025-7.271216249999999-0.1509796875-1.0682493750000002 0.7577446875-12.081186562500001 1.2306234375-15.8058159375 0.4458159375-3.731750625 19.9420771875-167.9658159375 19.9420771875-167.9658159375s-0.1709203125-1.23916875 0.44011875-2.140771875c0.611038125-0.875964375 2.891394375-2.8301484375 3.5067065625-5.85543 0.5967956249999999-3.0252815625 2.43988125-8.69554875 3.80011875-12.6053409375 1.38445125-3.89554875 4.7330559375000005-14.723323125 10.195370624999999-23.6140059375 5.48083125-8.872166250000001 7.9207125000000005-12.4258753125 8.991810000000001-15.0737090625 1.0696734374999999-2.6663503125 0.7691390625-4.2786946875 1.36878375-5.1788728125 0.612463125-0.8688431249999999 20.7055190625-22.7010084375 21.151335-23.4131746875 0.467180625-0.7135903125 0.467180625-14.216261249999999 0.7662909375-15.116439375 0.307655625-0.8688431249999999 4.556439375-5.3141840625 5.1689025-6.3696140625 0.6224334375-1.056855 1.6807124999999998-7.456379999999999 2.28035625-9.940415625 0.6138871874999999-2.4954300000000003 3.3571509374999997-6.3981009375 3.6633825-7.654362187499999 0.3062315625-1.244866875 9.2852221875-152.5103859375 9.2852221875-152.5103859375S889.675964375 466.331631875 886.9497921875001 464.019940625zM408.556439375 372.5778040625c-0.9343621875 1.0696734374999999-0.4629084375 2.2974478124999997-0.4629084375 2.2974478124999997l-95.8974478125 27.522374062500003-1.6764393750000002-0.51276c0 0 0.764866875-1.2548371875-0.30480749999999995-3.2104453125l98.4826115625-28.5920475C408.6974478125 370.0823740625 409.4623146875 371.49388718750004 408.556439375 372.5778040625zM421.31988125 371.13922812500005l-2.268961875-0.7135903125c0 0 1.06397625-1.7547778125 0-3.3528787500000004 1.9627303125000002-0.53554875 80.668486875-23.0770321875 80.668486875-23.0770321875s0.0541246875 0.8474775-0.47145375 1.1693765625c-1.9997625 1.2477150000000001-0.4643325 2.4470025 1.1309203125 2.1265284375 0.1410084375 0.6551925000000001 0.2578040625 1.148011875 0.2578040625 1.148011875L421.31988125 371.13922812500005zM494.2343028125 884.6466471875001l-1.97554875-0.348961875 2.5865878125-163.89649875 6.0861721875 1.244866875L494.2343028125 884.6466471875001zM496.8265878125 885.5382790625l6.403798125-163.1772103125 15.0566175 2.84011875-2.2874775 165.1385165625L496.8265878125 885.5382790625zM521.7908609374999 891.9235606249999l-3.6576853125-0.8859346874999999 2.5823146875-165.3023146875 1.9798218750000003 0.5141840625L521.7908609374999 891.9235606249999zM540.96807125 891.9235606249999l7.4506828125-160.1576259375 42.6217209375 9.065875312500001L540.96807125 891.9235606249999zM788.307655625 424.2426115625c0.20225531249999998-5.650326562499999 1.9798218750000003-50.4370321875 2.1137090625-52.547893125 0.17376843749999998-2.1336496875 0.3261721875-6.755608124999999-7.435014375-10.136973750000001-7.7740059375-3.36712125-18.284154375-6.9137090625-33.035964375-9.403441875-14.7689025-2.4883087500000003-23.59264125-3.9154893750000004-35.7621365625-5.3284275-12.1823146875-1.411513125-56.3181009375-5.856855-67.88652843749999-6.5704453124999995-11.572700625-0.6979228125-47.188130625-3.372819375-56.0303859375-3.7217803125-8.825162812499999-0.34326375-21.59287875 0-30.437982187499998 0.5270024999999999-8.8223146875 0.5284275-16.2658753125 1.427180625-21.4504453125 1.955608125-5.1774478125000005 0.5412459374999999-31.516201875000004 7.4535309375-31.516201875000004 7.4535309375s0.764866875-1.5995249999999999-0.30480749999999995-4.2587540625c0 0 20.393590312500002-5.8625521875 26.795964375-7.989079687499999 6.403798125-2.1265284375 38.0453409375-16.32854625 46.5628490625-20.588724375 8.5374478125-4.2786946875 49.320356249999996-28.06362 56.9348371875-32.507536875 7.614480937500001-4.436795625 10.2067659375-6.027774375 10.2067659375-6.027774375s0.4429678125 1.2420178124999999 2.428486875 0.1780415625c1.97697375-1.0696734374999999 1.0696734374999999-2.4911568749999997 1.0696734374999999-2.4911568749999997s43.058991562500005-26.28035625 51.284510624999996-31.415073749999998c8.224095-5.14326375 29.836914375-19.362374062500002 37.1380415625-24.6893765625 7.296855-5.3227303125 20.69554875-15.09507375 25.8829678125-21.487477499999997 5.180296875-6.3981009375 4.415430000000001-7.269792187499999 4.116320625-9.045934687499999-0.307655625-1.788961875-1.22350125-4.979465625-3.04807125-6.0491390625-1.8331153125-1.056855-17.966528437500003-7.803916875-20.699821874999998-9.759525-2.7475368749999998-1.9342434375000002-2.7475368749999998-3.1962018750000003-3.1976259375000002-4.956676875-0.46575656249999997-1.7975071875-0.159525-7.655786249999999 4.1106234375-14.2176853125 4.250207812499999-6.5704453124999995 8.3779228125-12.2506828125 13.532581875-17.5862315625 5.187418125-5.3141840625 13.092463125-13.4813053125 13.092463125-13.4813053125s10.2138871875 66.9293765625 11.11264125 72.6067659375c0.9215428125 5.707299375000001 12.499940625 79.548961875 13.244866875 84.5284275 0.7577446875 4.956676875 8.9789915625 58.75940625 9.755251875 64.6176853125 0.7463503125000001 5.876795625000001 2.580890625 21.1299703125 2.7290203125 23.2621959375 0.1581009375 2.1393468749999998 0 7.4691984375 0.1581009375 9.765222187500001 0.1452815625 2.3131153125 10.2067659375 63.740296875 10.2067659375 63.740296875S795.9078931250001 430.099465625 788.307655625 424.2426115625z" p-id="2433" fill="#e6e6e6"></path></svg>