<?xml version="1.0" standalone="no"?><!DOCTYPE svg PUBLIC "-//W3C//DTD SVG 1.1//EN" "http://www.w3.org/Graphics/SVG/1.1/DTD/svg11.dtd"><svg t="1564319671266" class="icon" viewBox="0 0 1024 1024" version="1.1" xmlns="http://www.w3.org/2000/svg" p-id="3240" xmlns:xlink="http://www.w3.org/1999/xlink" width="200" height="200"><defs><style type="text/css"></style></defs><path d="M961.911627 164.339631c0 0-15.031133-6.414239-15.884194-7.216832 0 0-2.958038-2.70733-5.942125 1.964971 0 0-3.799704 8.738993-7.207065 2.50546 0 0 0.455834-2.326382-1.880316-0.771662 0 0-2.337778-0.571421-2.993854 0.590957l-12.47195-3.308054 9.087381-25.274379c0 0 8.060126 1.374015 9.544843-1.72403l2.743145-3.698769c0 0 6.367027-9.32995 3.395965-12.066583 0 0-5.938869-2.917339-8.888767-2.917339 0 0 2.949899-10.101612-2.121257-11.275385 0 0 2.316615-14.360406-1.702866-16.325377l-1.050047-0.569793c0 0-6.782162 0-7.625455-1.164005 0 0-6.795186-1.191681-8.061754-3.12572 0 0-6.336096-0.390715-13.128025 12.457298 0 0-6.357259-4.289726-14.005506 6.594944l-5.909565-2.334522c0 0-7.633595 1.553092-6.357259 12.45567l2.534764 1.164005c0 0-3.374801 5.040224 0 6.593316l5.942125 3.508295-3.374801 5.432567c0 0-1.727286 2.735005 1.680075 4.288098l8.476888 3.487132c0 0-11.446323 10.10324-17.378679 12.44753-5.942125 2.324755-11.85169 10.88467-11.85169 10.88467l-11.884249-4.078088c0 0-0.634912-2.917339-2.314987-1.945435 0 0-0.851433-3.115952-2.984086-0.589329l-2.544532 0c0 0 0.227917-8.1692-2.536392-7.776857 0 0-11.426787 0.390715-17.979404-2.50546-6.5982-2.927107-13.173609 2.50546-13.588744 5.631181-0.415135 3.096417-4.434616 9.11994 2.764309 12.426366 0 0 8.901791 1.754962 12.507765 4.470431 3.602718 2.71547 9.525307 4.470431 10.791875 2.536392 0 0 5.286049-6.023524 5.699556-0.590957 0 0 0.875853 2.526624 2.567323 0.201869 0 0 2.121257 1.943807 3.61737-0.201869l8.237575 2.736633c0 0-11.644936 20.203224-12.081235 21.577238l-15.031133-4.489967c0 0 0-2.515228-2.751285-1.55472 0 0 0.633284-3.877847-3.384569-0.390715l-2.119629-0.390715-0.221405-0.952368c0 0 3.410617-13.22896-11.861457-12.638004 0 0-18.41733-5.642576-23.726171 10.873274-5.286049 16.51585 19.084802 22.148659 19.084802 22.148659s5.49443 3.908778 8.027566-0.95074c0 0 5.725603-10.313249 6.774022-4.089484 0 0 0.849805 2.915711 2.555928 0.571421 0 0 2.139165 1.964971 3.16642-0.380947l13.577348 3.308054-90.893343 164.619643-19.488541 34.9983c0 0-100.843552-25.276007-155.918094 58.709819 0 0-12.716147 16.716092-18.637108 64.91242 0 0-0.436298 20.984654-17.388447 30.716714 0 0-10.58675 6.594944-2.536392 12.828477l3.80296 0.771662 6.376795 7.776857c0 0-2.565695 7.386142 1.268196 7.775229 0 0 16.077924-1.160749 15.228119 5.842818 0 0 4.258794 17.079131-23.289872 59.460318-4.478571 6.876585-39.411752 57.536046-74.584246 44.709197 0 0-10.158591-5.053248-11.010024-7.778485 0 0-0.843293-4.268562-5.943753 0 0 0-5.0679 5.834678-3.386197 12.056815 0 0 5.52699 16.71772-20.755109 37.702374 0 0-55.501072 40.829722-63.137923 99.127662-1.549836 11.967276-6.334468 34.215242 9.32995 64.91242 0 0 2.129397 8.939235 17.80521 26.436757 0 0-7.646619 10.89281-0.851433 11.285153 0 0 12.27822 5.041852 17.368912 5.432567 0 0 16.953777 15.163 44.500815 29.17339 0 0-5.942125 8.138269 1.266568 8.550148 0 0 15.249283 6.593316 19.073406 2.324755l16.077924 6.61448c0 0-1.683331 6.593316 8.061754 6.984031 0 0 2.533136 3.11758-5.0679 2.34429l-1.300755 2.717098c0 0-3.8111 4.649509 11.044212 8.54852 14.812984 3.877847 13.544788 0.78143 13.544788 0.78143l1.683331-2.718726c0 0-5.920961-5.058132-0.841665-4.288098l1.693099-2.717098c0 0 87.715527 31.870952 128.830145 21.367229 0 0 89.398858-5.811886 115.220238-99.508609 7.602664-27.529131 5.092319-60.642231 5.092319-60.642231s-3.80296-25.272751 13.979459-36.929083c0 0 8.050358-4.260422 5.943753-9.712525 0 0 1.680075-5.071156-5.069528-3.890871l0-4.276702c0 0 0.830269-7.778485-4.673929-5.844446 0 0-23.311036 3.516435-30.936491-15.143464 0 0-8.061754-29.554337 8.061754-68.811431 3.540855-8.638058 15.664417-50.159672 42.36165-50.159672 0 0 10.158591-1.934039 19.488541 7.775229 0 0 10.156963-2.324755 6.772394-12.045419 0 0-5.090691-17.097039 19.923211-36.920944 24.982971-19.841812 43.214712-73.482104 36.44069-92.143631l-1.287732-7.394282c0 0 4.673929-74.24237-82.188537-106.513804l75.416143-178.810739c0 0 14.834148-3.498528 22.459603-20.98791l11.85983-22.949625 12.30264 3.518063 0.426531 1.162377 1.691471 0.771662c0 0 0.61212 3.107813 2.096837 0.590957 0 0 3.824123-3.506668 4.895334 2.124513 0 0-1.509137 8.939235 2.751285 9.710897 0 0 16.953777 5.271397 23.705007 1.582396 0 0 14.637162-9.720665 7.449633-21.967953 0 0-4.260422-5.251861-11.044212-8.367814 0 0 25.66021 3.899011 27.778212-3.4969C966.782541 175.212905 969.973381 170.744102 961.911627 164.339631zM928.004074 183.170468c-4.214839-2.114745-8.027566 5.66374-8.027566 5.66374-2.567323 4.058553-5.102087 1.162377-5.102087 1.162377 0.436298-3.899011-2.949899-1.372387-2.949899-1.372387-0.229545-1.362619-3.189212-0.200241-3.189212-0.200241l-9.526935-2.71547 11.643308-16.51585 13.347803 3.697141c-0.634912 1.553092 2.121257 2.324755 2.121257 2.324755-0.208381 2.145677 1.069582 0.77329 1.069582 0.77329 3.16642-3.308054 4.629973 0.210009 4.629973 0.210009l1.072838 0.571421c-1.486345 3.689001 1.266568 8.367814 1.266568 8.367814L928.004074 183.170468zM532.903255 376.584182l140.256932-208.757419 96.605922-144.997608 0.853061-7.39591-1.268196-1.543324 3.80296-12.457298L771.034305 1.041907c0 0 0.851433 10.132543-28.805467 4.680441 0 0-5.098831-4.680441-11.02142 5.842818 0 0-77.949279 137.60007-127.104487 211.451725-1.419598 2.124513-153.386586 224.32253-153.386586 224.32253L256.236305 722.949811l-83.476269 112.727802c0 0-30.923468 40.439007-31.349998 42.371418L72.764661 971.747382l-16.100716 20.986282c0 0-1.268196 1.942179 5.52699 5.05976 0 0 5.483034 5.041852 7.602664 2.71547l14.834148-19.040846-0.841665-1.551464 1.693099-1.956831 2.119629 0 13.565952-18.278952 24.141306 14.782052c0 0 5.089063 5.041852 8.890395-0.390715l43.65101-60.251515c0 0 2.119629-3.107813 2.119629-5.041852l98.287625-148.896619 128.382451-192.819501L532.903255 376.584182zM174.451507 904.098328l-5.079296-0.771662-7.625455 9.710897c-3.822495 6.61448-6.357259 5.452103-10.59489 3.879475-4.23763-1.553092-2.106605-6.974264-2.106605-6.974264l5.907937-10.904206c1.704494-1.553092 0.437926-3.877847 0.437926-3.877847l-3.386197-4.27019 3.801332-5.061388c4.675557-2.326382 27.963801-36.149281 27.963801-36.149281 2.971062-2.71547 2.119629-5.452103 2.119629-5.452103l44.064517-57.907225 27.133532-38.501711C321.471066 662.690155 426.969011 508.35283 426.969011 508.35283c90.697985-125.946994 191.946904-284.943596 191.946904-284.943596 101.283107-160.160608 112.72943-194.356314 112.72943-194.356314 3.80296-6.223765 11.01328-3.11758 11.01328-3.11758l16.952149 4.670673-25.430665 36.930711-147.88076 220.413751-145.32646 215.360503-124.144821 185.817562L174.451507 904.098328z" p-id="3241" fill="#e6e6e6"></path></svg>