<?xml version="1.0" standalone="no"?><!DOCTYPE svg PUBLIC "-//W3C//DTD SVG 1.1//EN" "http://www.w3.org/Graphics/SVG/1.1/DTD/svg11.dtd"><svg t="1564319620091" class="icon" viewBox="0 0 1024 1024" version="1.1" xmlns="http://www.w3.org/2000/svg" p-id="1478" xmlns:xlink="http://www.w3.org/1999/xlink" width="200" height="200"><defs><style type="text/css"></style></defs><path d="M917.333333 0c-64.170667 0-225.109333 202.325333-272.896 264.32a21.333333 21.333333 0 0 0 3.882667 29.909333c8.533333 6.656 20.352 5.333333 27.861333-2.090666l55.68 55.68a21.162667 21.162667 0 0 0-2.090666 27.861333 21.333333 21.333333 0 0 0 29.909333 3.882667C821.674667 331.776 1024 170.837333 1024 106.666667 1024 35.882667 988.117333 0 917.333333 0zM190.762667 833.237333a4246.4 4246.4 0 0 1-64.554667-65.962666 21.248 21.248 0 0 0-35.925333 9.002666A126.421333 126.421333 0 0 0 85.333333 810.666667c0 70.570667 57.429333 128 128 128a128 128 0 0 0 34.389334-4.906667 21.418667 21.418667 0 0 0 9.002666-35.925333c-20.309333-19.498667-41.898667-40.533333-65.962666-64.597334z" p-id="1479" fill="#e6e6e6"></path><path d="M719.104 304.896c-57.984-57.984-121.514667-87.381333-188.842667-87.381333-75.221333 0-155.221333 38.613333-225.322666 108.714666-30.208 30.208-53.632 56.746667-72.448 78.037334C191.573333 450.56 173.994667 469.333333 149.333333 469.333333c-6.997333 0-14.421333-0.213333-22.101333-0.426666-8.490667-0.213333-17.194667-0.469333-25.813333-0.469334-27.733333 0-101.418667 0-101.418667 64.896C0 597.546667 426.453333 1024 490.666667 1024c16.981333 0 31.616-5.802667 42.325333-16.853333 24.362667-25.002667 23.125333-70.4 22.101333-110.421334-0.213333-7.637333-0.426667-15.061333-0.426666-22.058666 0-24.661333 18.773333-42.24 65.066666-83.114667 21.290667-18.816 47.786667-42.24 78.037334-72.448 136.32-136.362667 144.298667-291.2 21.333333-414.208z m-60.373333 90.538667a21.333333 21.333333 0 0 1-30.165334 0c-33.578667-33.578667-65.749333-49.877333-98.346666-49.877334-55.296 0-108.202667 44.629333-134.826667 71.210667-27.392 27.434667-48.426667 51.2-66.986667 72.192-48.384 54.784-93.994667 106.410667-174.464 108.330667h-0.512a21.333333 21.333333 0 0 1-0.512-42.666667c61.866667-1.493333 97.877333-42.24 143.445334-93.824 19.029333-21.546667 40.533333-45.909333 68.864-74.24 31.274667-31.274667 94.293333-83.712 164.992-83.712 44.458667 0 86.528 20.394667 128.512 62.378667a21.333333 21.333333 0 0 1 0 30.208z" p-id="1480" fill="#e6e6e6"></path></svg>