<?xml version="1.0" standalone="no"?><!DOCTYPE svg PUBLIC "-//W3C//DTD SVG 1.1//EN" "http://www.w3.org/Graphics/SVG/1.1/DTD/svg11.dtd"><svg t="1564319718970" class="icon" viewBox="0 0 1024 1024" version="1.1" xmlns="http://www.w3.org/2000/svg" p-id="3755" xmlns:xlink="http://www.w3.org/1999/xlink" width="200" height="200"><defs><style type="text/css"></style></defs><path d="M788.147559 585.472532l-99.374392-51.301269c-32.823919 26.02525-32.31702 25.809596-36.934691 28.848766 11.209577 8.904077 88.696169 33.219656 118.520938 121.955843 25.267125 75.172199-0.475773 154.604126-54.825105 213.190954 0.724776 26.885644 22.69706 48.471084 49.756117 48.471083 27.517044 0 49.825037-22.307993 49.825037-49.825037V629.746138a49.822814 49.822814 0 0 0-26.967904-44.273606z" p-id="3756" fill="#e6e6e6"></path><path d="M547.759708 86.472929m-86.47293 0a86.472929 86.472929 0 1 0 172.945859 0 86.472929 86.472929 0 1 0-172.945859 0Z" p-id="3757" fill="#e6e6e6"></path><path d="M723.131121 700.847584c-9.871187-29.369004-29.233386-53.906906-55.56989-71.932938-27.394766-18.750808-48.72898-18.321723-67.942221-51.603629-20.06252-0.958217-38.85557-8.670637-53.637895-21.832219 7.249986 42.477228 35.002694 79.672037 76.041486 97.864812 20.962932 9.293144 48.344359 27.490366 59.745136 61.408119 19.900223 59.209334-23.086127 122.587244-80.027756 155.911391l-29.013285-84.523147 33.259674-11.491929c13.003732-4.493169 19.902447-18.679665 15.411501-31.683397-4.493169-13.003732-18.675218-19.898-31.683397-15.411501l-147.291889 50.896639c-13.003732 4.493169-19.902447 18.679665-15.411501 31.683397 4.490945 12.992616 18.661879 19.906893 31.683396 15.411501l38.982295-13.470613 29.486835 85.90378c-75.198878 13.110448-145.640022-15.887275-164.55535-72.159708-11.463027-34.104505-0.649186-65.696749 10.440336-86.197248 28.879891-53.382221 17.970451-119.24349-26.532149-160.16445-18.684111-17.181201-24.75578-42.568381-13.5173-70.072086l-44.049059-6.340681c-13.077099 42.059259-0.855947 81.975314 28.02839 108.536365 29.68248 27.29472 37.003611 71.574996 17.688099 107.278011-20.109208 37.16813-27.174665 79.954389-13.423925 120.864233 29.731392 88.44272 137.227281 122.03588 234.714142 96.586449l24.322249 70.859113c4.468713 13.023741 18.648539 19.942465 31.650048 15.475975 13.012625-4.46649 19.942465-18.637423 15.475975-31.650048l-24.593483-71.650586c94.176457-44.369206 147.605366-137.311764 120.319538-218.495605z" p-id="3758" fill="#e6e6e6"></path><path d="M792.625165 336.745307a279314.742471 279314.742471 0 0 0-111.61333-119.42135 34.260132 34.260132 0 0 0-25.064811-10.862752l-213.373259 0.17119a52.112751 52.112751 0 0 0-25.845167 6.885375l-35.52738 20.335978-24.562358-73.186845 20.153673-6.963189c13.003732-4.493169 19.902447-18.679665 15.411501-31.683397l-0.031125-0.077813c-4.604331-13.181591-16.934421-20.418238-34.580279-14.31989l-16.805473 5.807103-8.532796-25.427198 20.120324-6.952073c13.003732-4.493169 19.90467-18.679665 15.411502-31.683396-0.011116-0.035572-0.028902-0.066697-0.040019-0.102269-4.562089-13.025965-18.824175-19.737927-31.643378-15.309233l-19.700132 6.807562-4.499838-13.406139c-6.549666-19.508933-27.792726-30.096003-47.317222-23.537444-0.035572 0.011116-0.06892 0.028902-0.106716 0.042241-19.542282 6.623033-29.973725 27.786057-23.430728 47.274981l4.711046 14.037539-20.086976 6.940956c-13.003732 4.493169-19.90467 18.677441-15.411501 31.683396 4.486499 12.9815 18.652986 19.91134 31.68562 15.409279l19.666783-6.796446 8.532796 25.427199-19.27327 6.658604c-12.712488 4.393123-20.355988 17.941549-16.547577 30.840789 3.646114 12.347876 15.84281 19.584523 27.972809 17.559151 0.226771-0.037795 0.451318-0.097823 0.675865-0.142287 2.247696-0.440202 3.34153-0.875957 5.553654-1.640751l-16.307467 51.683666-29.629123 93.909667c-7.539008 23.897609 10.295826 48.613371 35.642988 48.613372 12.801417 0 12.527959-1.456222 81.18384-41.069917l23.055002 68.698123-70.756844-10.186887c-13.501738-1.934219-26.200886 7.405613-28.197356 21.045192l-0.011117 0.062251c-1.980907 13.750741 7.661286 26.27203 21.107443 28.208472l95.608224 13.764081 44.057952 131.280113c6.589684 19.633435 27.817182 30.08044 47.317222 23.537444 19.411111-6.516317 30.138245-27.650439 23.537444-47.317222l-32.074687-95.572651 103.507396 14.902379a37.18814 37.18814 0 0 0 7.992549 20.780626c12.703595 16.020669 35.943125 18.888649 52.170555 6.302887 0.106716-0.08226 0.220101-0.153404 0.32904-0.237887 179.299879-142.160651 159.830964-126.691345 162.14758-128.623341 16.774348-13.999744 17.75702-38.76664 3.417121-54.149239z m-194.288965 110.163777l-153.030072-22.032311-39.847135-118.734368 44.031273-25.404967 19.620095 58.464549c49.089145 1.992023 92.462338 19.711248 123.354261 48.777891l65.796795-52.168332v-33.590937l52.090519 55.876697-112.015736 88.811778z" p-id="3759" fill="#e6e6e6"></path></svg>