<?xml version="1.0" standalone="no"?><!DOCTYPE svg PUBLIC "-//W3C//DTD SVG 1.1//EN" "http://www.w3.org/Graphics/SVG/1.1/DTD/svg11.dtd"><svg t="1564319577113" class="icon" viewBox="0 0 1024 1024" version="1.1" xmlns="http://www.w3.org/2000/svg" p-id="589" xmlns:xlink="http://www.w3.org/1999/xlink" width="200" height="200"><defs><style type="text/css"></style></defs><path d="M317.354667 81.322667c-3.2 1.024-5.333333 3.669333-5.333334 8.021333 0 0 58.965333 162.304-30.72 251.989333L256 366.677333l1.322667 1.322667-115.968 113.322667H139.946667a194.858667 194.858667 0 0 0 0 274.688 194.858667 194.858667 0 0 0 274.688 0l4.010666-5.333334L597.333333 571.989333 708.010667 682.666667 597.333333 793.344 571.989333 768 512 827.989333 622.677333 938.666667 682.666667 878.677333 657.322667 853.333333l234.666666-234.666666a163.754667 163.754667 0 0 0 0-230.656 163.754667 163.754667 0 0 0-230.656 0l-149.333333 149.333333-148.010667-149.333333c94.506667-63.018667 229.333333-11.989333 229.333334-11.989334 4.352 0 8.362667-13.013333 4.010666-17.365333L327.978667 85.333333c-4.309333-4.352-7.466667-4.992-10.666667-4.010666z m458.666666 344.021333c19.968 0 40.832 7.509333 55.978667 22.656a78.378667 78.378667 0 0 1 0 110.677333l-64 64L657.322667 512l64-64a76.544 76.544 0 0 1 54.698666-22.656z m-476.032 21.333333L452.010667 597.333333l-50.688 50.688-151.978667-152.021333z m-110.634666 110.677334l149.333333 149.333333c-42.666667 31.146667-98.005333 27.306667-137.386667-12.032-39.296-39.338667-43.136-94.634667-11.946666-137.301333z" fill="#e6e6e6" p-id="590"></path></svg>